<?xml version="1.0" ?><svg id="Layer_1" style="enable-background:new 0 0 128 128;" version="1.1" viewBox="0 0 128 128" xml:space="preserve" xmlns="http://www.w3.org/2000/svg" xmlns:xlink="http://www.w3.org/1999/xlink"><style type="text/css">
	.st0{fill:#FFFFFF;}
	.st1{fill:none;stroke:#444B54;stroke-width:6;stroke-linecap:round;stroke-linejoin:round;stroke-miterlimit:10;}
	.st2{fill:#76ECFF;}
	.st3{fill:#E4E7E7;}
	.st4{fill:#FF697B;}
	.st5{fill:#659EC9;}
	.st6{fill:#444B54;}
	.st7{fill:#A4F4C4;}
	.st8{fill:#06A18C;}
	.st9{fill:#8FE5B5;}
	.st10{opacity:0.5;fill:#06A18C;}
	.st11{opacity:0.5;}
	.st12{fill:#FFDBAB;}
	.st13{fill:#D18669;}
	.st14{fill:#FCF09D;}
	.st15{fill:none;stroke:#FFFFFF;stroke-miterlimit:10;}
	.st16{fill:#EDECEB;}
	.st17{fill:#4FBBC6;}
</style><g><circle class="st0" cx="64" cy="64" r="45"/></g><g><path class="st6" d="M64,112c-26.5,0-48-21.5-48-48s21.5-48,48-48s48,21.5,48,48S90.5,112,64,112z M64,22c-23.2,0-42,18.8-42,42   s18.8,42,42,42s42-18.8,42-42S87.2,22,64,22z"/></g><g><g><path class="st4" d="M87.4,40.6L70,70L58,58C58,58,87.4,40.6,87.4,40.6z"/></g><g><path class="st3" d="M40.6,87.4L70,70L58,58C58,58,40.6,87.4,40.6,87.4z"/></g></g></svg>